<?xml version="1.0" encoding="utf-8"?>
<!-- Generator: Adobe Illustrator 14.0.0, SVG Export Plug-In . SVG Version: 6.00 Build 43363)  -->
<!DOCTYPE svg PUBLIC "-//W3C//DTD SVG 1.1//EN" "http://www.w3.org/Graphics/SVG/1.1/DTD/svg11.dtd">
<svg version="1.1" id="LAITS_split" xmlns="http://www.w3.org/2000/svg" xmlns:xlink="http://www.w3.org/1999/xlink" x="0px"
	 y="0px" width="270px" height="40px" viewBox="0 0 270 40" enable-background="new 0 0 270 40" xml:space="preserve">
<text transform="matrix(1 0 0 1 28.3887 18.8926)" fill="#676766" font-family="'RobotoCondensed-Bold'" font-size="21.9052"> </text>
<path fill="#010202" d="M34.117,30.212v-0.081V30.212z"/>
<g>
	<rect x="1" y="4" fill="#6D6968" width="5.309" height="5.307"/>
	<rect x="1" y="10.673" fill="#457B7C" width="5.309" height="5.308"/>
	<rect x="1" y="17.346" fill="#4DA434" width="5.309" height="5.308"/>
	<rect x="7.671" y="17.346" fill="#4DA434" width="5.309" height="5.308"/>
	<rect x="14.345" y="17.346" fill="#4DA434" width="5.308" height="5.308"/>
	<rect x="21.019" y="17.346" fill="#4DA434" width="5.307" height="5.308"/>
	<rect x="27.688" y="17.346" fill="#4DA434" width="5.312" height="5.308"/>
	<rect x="27.688" y="24.02" fill="#D2910D" width="5.312" height="5.306"/>
	<rect x="21.019" y="24.02" fill="#D2910D" width="5.307" height="5.306"/>
	<rect x="14.345" y="24.02" fill="#D2910D" width="5.308" height="5.306"/>
	<rect x="7.671" y="24.02" fill="#D2910D" width="5.309" height="5.306"/>
	<rect x="1" y="24.02" fill="#D2910D" width="5.309" height="5.306"/>
	<polyline fill="#E85F0D" points="1,35.999 1,30.689 6.309,30.689 6.309,35.999 	"/>
	<polyline fill="#E85F0D" points="7.671,35.999 7.671,30.689 12.981,30.689 12.981,35.999 	"/>
	<polyline fill="#E85F0D" points="14.345,35.999 14.345,30.689 19.652,30.689 19.652,35.999 	"/>
	<polyline fill="#E85F0D" points="21.019,35.999 21.019,30.689 26.325,30.689 26.325,35.999 	"/>
	<polyline fill="#E85F0D" points="27.688,35.999 27.688,30.689 33,30.689 33,35.999 	"/>
	<rect x="7.671" y="10.673" fill="#457B7C" width="5.309" height="5.308"/>
	<rect x="14.345" y="10.673" fill="#457B7C" width="5.308" height="5.308"/>
	<rect x="21.019" y="10.673" fill="#457B7C" width="5.307" height="5.308"/>
	<rect x="27.688" y="10.673" fill="#457B7C" width="5.312" height="5.308"/>
	<rect x="7.671" y="4" fill="#6D6968" width="5.309" height="5.307"/>
	<rect x="14.345" y="4" fill="#6D6968" width="5.308" height="5.307"/>
	<rect x="21.019" y="4" fill="#6D6968" width="5.307" height="5.307"/>
	<rect x="27.688" y="4" fill="#6D6968" width="5.312" height="5.307"/>
</g>
<g enable-background="new    ">
	<path fill="#676766" d="M39.521,35.889h-2.44V23.803h2.44V35.889z"/>
</g>
<g enable-background="new    ">
	<path fill="#676766" d="M43.639,26.907l0.066,0.888c0.531-0.702,1.226-1.054,2.083-1.054c1.544,0,2.338,1.082,2.382,3.245v5.902
		h-2.357v-5.728c0-0.509-0.076-0.879-0.229-1.108c-0.152-0.229-0.419-0.344-0.801-0.344c-0.426,0-0.758,0.218-0.996,0.655v6.524
		h-2.357v-8.981H43.639z"/>
</g>
<g enable-background="new    ">
	<path fill="#676766" d="M53.781,33.481c0-0.199-0.096-0.383-0.286-0.552c-0.191-0.169-0.616-0.397-1.274-0.686
		c-0.968-0.393-1.634-0.799-1.996-1.22c-0.363-0.421-0.544-0.943-0.544-1.569c0-0.785,0.284-1.435,0.851-1.946
		c0.567-0.512,1.319-0.768,2.254-0.768c0.985,0,1.773,0.255,2.366,0.764s0.888,1.192,0.888,2.05H53.69
		c0-0.73-0.304-1.096-0.913-1.096c-0.249,0-0.454,0.078-0.614,0.232c-0.161,0.155-0.241,0.371-0.241,0.648
		c0,0.199,0.088,0.374,0.266,0.526s0.595,0.37,1.253,0.651c0.958,0.354,1.634,0.749,2.03,1.184c0.396,0.435,0.593,0.997,0.593,1.689
		c0,0.802-0.302,1.446-0.905,1.934s-1.395,0.73-2.374,0.73c-0.659,0-1.24-0.129-1.743-0.386c-0.503-0.258-0.898-0.616-1.183-1.075
		c-0.285-0.459-0.428-0.955-0.428-1.486h2.233c0.011,0.41,0.106,0.717,0.287,0.922c0.18,0.205,0.474,0.307,0.884,0.307
		C53.466,34.336,53.781,34.052,53.781,33.481z"/>
</g>
<g enable-background="new    ">
	<path fill="#676766" d="M60.388,24.699v2.208h1.204v1.76h-1.204v4.465c0,0.354,0.048,0.598,0.146,0.731
		c0.097,0.133,0.283,0.199,0.56,0.199c0.227,0,0.412-0.02,0.556-0.059l-0.017,1.826c-0.398,0.15-0.83,0.225-1.295,0.225
		c-1.516,0-2.283-0.87-2.299-2.609v-4.778h-1.038v-1.76h1.038v-2.208H60.388z"/>
</g>
<g enable-background="new    ">
	<path fill="#676766" d="M67.397,29.174l-0.78-0.066c-0.642,0-1.076,0.281-1.303,0.846v5.936h-2.357v-8.981h2.216l0.066,0.972
		c0.371-0.759,0.883-1.138,1.536-1.138c0.266,0,0.481,0.036,0.647,0.108L67.397,29.174z"/>
</g>
<g enable-background="new    ">
	<path fill="#676766" d="M73.035,35.066c-0.487,0.659-1.14,0.988-1.959,0.988c-0.825,0-1.45-0.283-1.876-0.851
		s-0.639-1.394-0.639-2.478v-5.819h2.349v5.877c0.011,0.874,0.302,1.312,0.872,1.312c0.537,0,0.924-0.232,1.162-0.697v-6.491h2.366
		v8.981h-2.208L73.035,35.066z"/>
</g>
<g enable-background="new    ">
	<path fill="#676766" d="M80.271,34.121c0.681,0,1.026-0.449,1.038-1.346h2.208c-0.011,0.98-0.312,1.771-0.905,2.375
		c-0.592,0.603-1.356,0.904-2.291,0.904c-1.157,0-2.039-0.359-2.648-1.079s-0.918-1.779-0.93-3.179v-0.715
		c0-1.41,0.3-2.487,0.901-3.229c0.6-0.741,1.487-1.112,2.66-1.112c0.991,0,1.771,0.306,2.341,0.917s0.86,1.479,0.872,2.603h-2.208
		c-0.005-0.509-0.088-0.9-0.249-1.175c-0.161-0.273-0.426-0.41-0.797-0.41c-0.41,0-0.703,0.146-0.88,0.438
		c-0.177,0.292-0.271,0.858-0.282,1.699v0.919c0,0.734,0.036,1.248,0.108,1.541c0.072,0.292,0.191,0.506,0.357,0.643
		S79.966,34.121,80.271,34.121z"/>
</g>
<g enable-background="new    ">
	<path fill="#676766" d="M87.726,24.699v2.208h1.204v1.76h-1.204v4.465c0,0.354,0.048,0.598,0.146,0.731
		c0.097,0.133,0.283,0.199,0.56,0.199c0.227,0,0.412-0.02,0.556-0.059l-0.017,1.826c-0.398,0.15-0.83,0.225-1.295,0.225
		c-1.516,0-2.283-0.87-2.299-2.609v-4.778h-1.038v-1.76h1.038v-2.208H87.726z"/>
</g>
<g enable-background="new    ">
	<path fill="#676766" d="M90.209,24.583c0-0.365,0.116-0.664,0.349-0.896s0.542-0.349,0.93-0.349s0.697,0.116,0.93,0.349
		s0.349,0.531,0.349,0.896c0,0.359-0.115,0.658-0.344,0.896c-0.23,0.238-0.541,0.356-0.934,0.356s-0.704-0.118-0.934-0.356
		C90.324,25.241,90.209,24.942,90.209,24.583z M92.674,35.889h-2.357v-8.981h2.357V35.889z"/>
</g>
<g enable-background="new    ">
	<path fill="#676766" d="M94.151,31.107c0-1.361,0.321-2.43,0.963-3.204s1.53-1.162,2.665-1.162c1.146,0,2.039,0.388,2.681,1.162
		s0.963,1.849,0.963,3.221v0.573c0,1.366-0.318,2.435-0.955,3.203c-0.636,0.77-1.527,1.154-2.673,1.154
		c-1.151,0-2.046-0.386-2.685-1.158c-0.64-0.771-0.959-1.844-0.959-3.217V31.107z M96.508,31.698c0,1.615,0.429,2.423,1.287,2.423
		c0.792,0,1.217-0.674,1.278-2.021l0.008-0.994c0-0.824-0.113-1.435-0.34-1.833s-0.548-0.597-0.963-0.597
		c-0.398,0-0.709,0.198-0.934,0.597c-0.224,0.398-0.336,1.009-0.336,1.833V31.698z"/>
</g>
<g enable-background="new    ">
	<path fill="#676766" d="M105.069,26.907l0.066,0.888c0.531-0.702,1.226-1.054,2.083-1.054c1.544,0,2.338,1.082,2.382,3.245v5.902
		h-2.357v-5.728c0-0.509-0.076-0.879-0.229-1.108c-0.152-0.229-0.419-0.344-0.801-0.344c-0.426,0-0.758,0.218-0.996,0.655v6.524
		h-2.357v-8.981H105.069z"/>
</g>
<g enable-background="new    ">
	<path fill="#676766" d="M115.528,35.889c-0.066-0.139-0.133-0.371-0.199-0.697c-0.42,0.575-0.991,0.863-1.71,0.863
		c-0.752,0-1.376-0.249-1.872-0.747c-0.496-0.498-0.743-1.143-0.743-1.935c0-0.94,0.3-1.668,0.9-2.183
		c0.601-0.515,1.465-0.777,2.594-0.788h0.714V29.68c0-0.404-0.069-0.689-0.208-0.855s-0.34-0.248-0.606-0.248
		c-0.586,0-0.88,0.343-0.88,1.029h-2.349c0-0.83,0.312-1.516,0.934-2.055c0.623-0.54,1.41-0.81,2.362-0.81
		c0.985,0,1.748,0.256,2.287,0.768c0.54,0.512,0.81,1.244,0.81,2.196v4.225c0.011,0.774,0.122,1.381,0.332,1.818v0.141H115.528z
		 M114.142,34.212c0.26,0,0.481-0.053,0.664-0.157c0.183-0.105,0.318-0.23,0.407-0.374v-1.868h-0.564
		c-0.398,0-0.712,0.128-0.942,0.383c-0.23,0.254-0.345,0.595-0.345,1.021C113.361,33.88,113.622,34.212,114.142,34.212z"/>
</g>
<g enable-background="new    ">
	<path fill="#676766" d="M121.696,35.889h-2.357v-12.75h2.357V35.889z"/>
</g>
<g enable-background="new    ">
	<path fill="#676766" d="M135.376,25.836h-2.988v10.053h-2.449V25.836H127v-2.033h8.375V25.836z"/>
</g>
<g enable-background="new    ">
	<path fill="#676766" d="M138.979,36.055c-1.206,0-2.147-0.359-2.822-1.079c-0.675-0.72-1.013-1.749-1.013-3.088v-0.714
		c0-1.417,0.31-2.51,0.93-3.279c0.619-0.769,1.508-1.153,2.664-1.153c1.129,0,1.979,0.36,2.549,1.082
		c0.57,0.721,0.86,1.788,0.871,3.203v1.151h-4.673c0.033,0.673,0.18,1.165,0.44,1.477c0.26,0.311,0.66,0.467,1.203,0.467
		c0.785,0,1.441-0.274,1.967-0.822l0.922,1.42c-0.287,0.398-0.705,0.721-1.254,0.967C140.217,35.932,139.621,36.055,138.979,36.055z
		 M137.502,30.543h2.35v-0.218c-0.012-0.542-0.1-0.952-0.266-1.231c-0.166-0.278-0.454-0.418-0.863-0.418
		c-0.41,0-0.707,0.147-0.893,0.443S137.535,29.89,137.502,30.543z"/>
</g>
<g enable-background="new    ">
	<path fill="#676766" d="M146.783,34.121c0.68,0,1.025-0.449,1.037-1.346h2.208c-0.011,0.98-0.312,1.771-0.905,2.375
		c-0.592,0.603-1.355,0.904-2.291,0.904c-1.156,0-2.039-0.359-2.647-1.079s-0.919-1.779-0.93-3.179v-0.715
		c0-1.41,0.3-2.487,0.901-3.229c0.6-0.741,1.486-1.112,2.66-1.112c0.99,0,1.771,0.306,2.34,0.917
		c0.57,0.611,0.861,1.479,0.872,2.603h-2.208c-0.006-0.509-0.088-0.9-0.249-1.175c-0.161-0.273-0.427-0.41-0.797-0.41
		c-0.409,0-0.702,0.146-0.88,0.438c-0.178,0.292-0.271,0.858-0.282,1.699v0.919c0,0.734,0.036,1.248,0.108,1.541
		c0.071,0.292,0.19,0.506,0.356,0.643S146.479,34.121,146.783,34.121z"/>
	<path fill="#676766" d="M153.647,27.695c0.509-0.636,1.134-0.954,1.876-0.954c0.818,0,1.441,0.288,1.867,0.863
		c0.427,0.575,0.643,1.434,0.648,2.573v5.711h-2.357v-5.686c0-0.526-0.082-0.906-0.246-1.142c-0.162-0.235-0.427-0.353-0.792-0.353
		c-0.427,0-0.759,0.196-0.996,0.589v6.591h-2.349v-12.75h2.349V27.695z"/>
</g>
<g enable-background="new    ">
	<path fill="#676766" d="M162,26.907l0.066,0.888c0.531-0.702,1.226-1.054,2.084-1.054c1.543,0,2.338,1.082,2.382,3.245v5.902
		h-2.357v-5.728c0-0.509-0.076-0.879-0.229-1.108c-0.151-0.229-0.419-0.344-0.801-0.344c-0.427,0-0.759,0.218-0.996,0.655v6.524
		h-2.357v-8.981H162z"/>
</g>
<g enable-background="new    ">
	<path fill="#676766" d="M167.949,31.107c0-1.361,0.32-2.43,0.963-3.204s1.53-1.162,2.664-1.162c1.146,0,2.039,0.388,2.682,1.162
		s0.963,1.849,0.963,3.221v0.573c0,1.366-0.318,2.435-0.955,3.203c-0.636,0.77-1.527,1.154-2.672,1.154
		c-1.151,0-2.047-0.386-2.686-1.158c-0.64-0.771-0.959-1.844-0.959-3.217V31.107z M170.307,31.698c0,1.615,0.429,2.423,1.287,2.423
		c0.791,0,1.217-0.674,1.277-2.021l0.009-0.994c0-0.824-0.113-1.435-0.341-1.833c-0.227-0.398-0.547-0.597-0.963-0.597
		c-0.398,0-0.709,0.198-0.934,0.597c-0.224,0.398-0.336,1.009-0.336,1.833V31.698z"/>
</g>
<g enable-background="new    ">
	<path fill="#676766" d="M179.109,35.889h-2.357v-12.75h2.357V35.889z"/>
</g>
<g enable-background="new    ">
	<path fill="#676766" d="M180.63,31.107c0-1.361,0.321-2.43,0.963-3.204s1.53-1.162,2.665-1.162c1.145,0,2.039,0.388,2.681,1.162
		s0.963,1.849,0.963,3.221v0.573c0,1.366-0.318,2.435-0.954,3.203c-0.637,0.77-1.527,1.154-2.674,1.154
		c-1.15,0-2.046-0.386-2.685-1.158c-0.64-0.771-0.959-1.844-0.959-3.217V31.107z M182.987,31.698c0,1.615,0.429,2.423,1.286,2.423
		c0.792,0,1.218-0.674,1.279-2.021l0.008-0.994c0-0.824-0.113-1.435-0.34-1.833c-0.228-0.398-0.549-0.597-0.963-0.597
		c-0.398,0-0.71,0.198-0.935,0.597c-0.224,0.398-0.336,1.009-0.336,1.833V31.698z"/>
</g>
<g enable-background="new    ">
	<path fill="#676766" d="M189.096,31.124c0-1.472,0.266-2.57,0.797-3.296c0.531-0.725,1.275-1.087,2.232-1.087
		c0.814,0,1.441,0.321,1.885,0.963l0.092-0.797h2.116v8.981c0,1.146-0.321,2.021-0.963,2.627c-0.642,0.606-1.563,0.909-2.765,0.909
		c-0.492,0-1.01-0.099-1.552-0.295s-0.946-0.446-1.212-0.751l0.789-1.627c0.221,0.232,0.509,0.422,0.863,0.568
		c0.354,0.146,0.688,0.221,1.004,0.221c0.525,0,0.903-0.126,1.133-0.378c0.23-0.252,0.348-0.657,0.354-1.216v-0.772
		c-0.449,0.587-1.033,0.88-1.752,0.88c-0.957,0-1.697-0.372-2.221-1.116s-0.789-1.795-0.801-3.15V31.124z M191.445,31.713
		c0,0.83,0.107,1.436,0.323,1.814s0.56,0.568,1.029,0.568c0.481,0,0.839-0.174,1.071-0.523v-4.291
		c-0.244-0.382-0.596-0.572-1.055-0.572c-0.465,0-0.809,0.19-1.033,0.572s-0.336,0.996-0.336,1.843V31.713z"/>
</g>
<g enable-background="new    ">
	<path fill="#676766" d="M200.889,31.979l1.195-5.071h2.506l-2.955,10.326c-0.442,1.521-1.275,2.282-2.498,2.282
		c-0.282,0-0.604-0.052-0.963-0.157v-1.835l0.273,0.009c0.365,0,0.641-0.07,0.826-0.212c0.186-0.141,0.325-0.386,0.42-0.734
		l0.182-0.605l-2.59-9.073h2.523L200.889,31.979z"/>
	<path fill="#676766" d="M214.734,32.718c0-0.492-0.127-0.864-0.379-1.116c-0.251-0.252-0.709-0.514-1.373-0.785
		c-1.212-0.459-2.084-0.997-2.615-1.614s-0.797-1.346-0.797-2.187c0-1.019,0.361-1.836,1.084-2.453s1.639-0.926,2.752-0.926
		c0.741,0,1.402,0.156,1.983,0.469s1.028,0.754,1.341,1.324s0.469,1.218,0.469,1.942h-2.432c0-0.564-0.121-0.995-0.361-1.291
		s-0.588-0.444-1.042-0.444c-0.427,0-0.759,0.126-0.996,0.378s-0.356,0.591-0.356,1.017c0,0.332,0.133,0.633,0.398,0.901
		s0.735,0.546,1.41,0.834c1.18,0.426,2.035,0.949,2.57,1.569c0.533,0.619,0.801,1.408,0.801,2.365c0,1.052-0.336,1.873-1.005,2.465
		c-0.669,0.593-1.58,0.889-2.731,0.889c-0.779,0-1.49-0.16-2.133-0.481s-1.145-0.78-1.506-1.378
		c-0.363-0.598-0.545-1.303-0.545-2.117h2.449c0,0.697,0.136,1.204,0.406,1.52c0.271,0.315,0.715,0.473,1.328,0.473
		C214.308,34.07,214.734,33.62,214.734,32.718z"/>
</g>
<g enable-background="new    ">
	<path fill="#676766" d="M222.321,36.055c-1.206,0-2.147-0.359-2.822-1.079s-1.013-1.749-1.013-3.088v-0.714
		c0-1.417,0.311-2.51,0.93-3.279c0.619-0.769,1.508-1.153,2.664-1.153c1.129,0,1.979,0.36,2.549,1.082
		c0.57,0.721,0.86,1.788,0.871,3.203v1.151h-4.673c0.033,0.673,0.18,1.165,0.44,1.477c0.26,0.311,0.66,0.467,1.203,0.467
		c0.785,0,1.441-0.274,1.967-0.822l0.922,1.42c-0.287,0.398-0.705,0.721-1.254,0.967C223.559,35.932,222.963,36.055,222.321,36.055z
		 M220.844,30.543h2.35v-0.218c-0.012-0.542-0.1-0.952-0.266-1.231c-0.166-0.278-0.454-0.418-0.863-0.418
		c-0.41,0-0.707,0.147-0.893,0.443S220.877,29.89,220.844,30.543z"/>
</g>
<g enable-background="new    ">
	<path fill="#676766" d="M231.34,29.174l-0.779-0.066c-0.643,0-1.076,0.281-1.304,0.846v5.936h-2.357v-8.981h2.216l0.066,0.972
		c0.371-0.759,0.883-1.138,1.536-1.138c0.266,0,0.481,0.036,0.647,0.108L231.34,29.174z"/>
</g>
<g enable-background="new    ">
	<path fill="#676766" d="M235.798,32.568l1.138-5.661h2.448l-2.466,8.981h-2.24l-2.475-8.981h2.457L235.798,32.568z"/>
	<path fill="#676766" d="M240.488,24.583c0-0.365,0.115-0.664,0.348-0.896s0.543-0.349,0.93-0.349c0.388,0,0.697,0.116,0.93,0.349
		s0.35,0.531,0.35,0.896c0,0.359-0.115,0.658-0.345,0.896s-0.541,0.356-0.935,0.356c-0.393,0-0.703-0.118-0.934-0.356
		C240.603,25.241,240.488,24.942,240.488,24.583z M242.953,35.889h-2.357v-8.981h2.357V35.889z"/>
</g>
<g enable-background="new    ">
	<path fill="#676766" d="M247.951,34.121c0.682,0,1.027-0.449,1.038-1.346h2.208c-0.012,0.98-0.312,1.771-0.904,2.375
		c-0.593,0.603-1.356,0.904-2.291,0.904c-1.157,0-2.039-0.359-2.648-1.079s-0.918-1.779-0.93-3.179v-0.715
		c0-1.41,0.301-2.487,0.9-3.229c0.601-0.741,1.487-1.112,2.66-1.112c0.991,0,1.771,0.306,2.342,0.917
		c0.569,0.611,0.859,1.479,0.871,2.603h-2.208c-0.005-0.509-0.089-0.9-0.249-1.175c-0.16-0.273-0.426-0.41-0.797-0.41
		c-0.41,0-0.703,0.146-0.88,0.438c-0.177,0.292-0.271,0.858-0.282,1.699v0.919c0,0.734,0.036,1.248,0.107,1.541
		c0.072,0.292,0.191,0.506,0.357,0.643S247.647,34.121,247.951,34.121z"/>
</g>
<g enable-background="new    ">
	<path fill="#676766" d="M256.158,36.055c-1.207,0-2.146-0.359-2.822-1.079s-1.013-1.749-1.013-3.088v-0.714
		c0-1.417,0.31-2.51,0.93-3.279c0.62-0.769,1.508-1.153,2.665-1.153c1.129,0,1.979,0.36,2.548,1.082
		c0.569,0.721,0.86,1.788,0.872,3.203v1.151h-4.674c0.033,0.673,0.18,1.165,0.439,1.477c0.261,0.311,0.662,0.467,1.204,0.467
		c0.786,0,1.441-0.274,1.968-0.822l0.921,1.42c-0.288,0.398-0.706,0.721-1.253,0.967C257.395,35.932,256.801,36.055,256.158,36.055z
		 M254.681,30.543h2.349v-0.218c-0.011-0.542-0.1-0.952-0.266-1.231c-0.166-0.278-0.453-0.418-0.863-0.418
		c-0.409,0-0.707,0.147-0.892,0.443C254.823,29.415,254.714,29.89,254.681,30.543z"/>
</g>
<g enable-background="new    ">
	<path fill="#676766" d="M264.591,33.481c0-0.199-0.096-0.383-0.286-0.552c-0.191-0.169-0.615-0.397-1.274-0.686
		c-0.968-0.393-1.634-0.799-1.996-1.22s-0.544-0.943-0.544-1.569c0-0.785,0.283-1.435,0.851-1.946s1.319-0.768,2.254-0.768
		c0.985,0,1.773,0.255,2.366,0.764c0.592,0.509,0.888,1.192,0.888,2.05H264.5c0-0.73-0.305-1.096-0.914-1.096
		c-0.248,0-0.453,0.078-0.613,0.232c-0.161,0.155-0.241,0.371-0.241,0.648c0,0.199,0.089,0.374,0.266,0.526s0.595,0.37,1.253,0.651
		c0.958,0.354,1.635,0.749,2.03,1.184s0.593,0.997,0.593,1.689c0,0.802-0.301,1.446-0.904,1.934s-1.395,0.73-2.374,0.73
		c-0.659,0-1.239-0.129-1.743-0.386c-0.504-0.258-0.898-0.616-1.183-1.075c-0.285-0.459-0.428-0.955-0.428-1.486h2.233
		c0.011,0.41,0.105,0.717,0.286,0.922c0.18,0.205,0.474,0.307,0.884,0.307C264.275,34.336,264.591,34.052,264.591,33.481z"/>
</g>
<g enable-background="new    ">
	<path fill="#676766" d="M39.299,16.431h5.524v1.519h-7.304V3.863h1.78V16.431z"/>
</g>
<g enable-background="new    ">
	<path fill="#676766" d="M48.831,4.705c0,0.29-0.081,0.532-0.242,0.726c-0.162,0.193-0.407,0.29-0.735,0.29
		c-0.323,0-0.564-0.097-0.726-0.29s-0.242-0.436-0.242-0.726s0.081-0.535,0.242-0.735c0.161-0.199,0.403-0.3,0.726-0.3
		c0.322,0,0.566,0.102,0.73,0.305S48.831,4.422,48.831,4.705z M48.696,17.949h-1.712V7.481h1.712V17.949z"/>
	<path fill="#676766" d="M58.97,13.219c0,1.632-0.294,2.86-0.88,3.686c-0.587,0.826-1.438,1.238-2.554,1.238
		c-1.109,0-1.941-0.478-2.496-1.432l-0.087,1.238h-1.558V3.09h1.703v5.543c0.561-0.896,1.367-1.345,2.418-1.345
		c1.148,0,2.009,0.406,2.583,1.219c0.574,0.812,0.864,2.038,0.871,3.677V13.219z M57.267,12.237c0-1.237-0.173-2.118-0.518-2.643
		c-0.345-0.525-0.905-0.788-1.679-0.788c-0.884,0-1.542,0.478-1.974,1.431v4.976c0.426,0.94,1.09,1.411,1.993,1.411
		c0.774,0,1.329-0.271,1.664-0.812c0.335-0.541,0.506-1.382,0.513-2.522V12.237z"/>
	<path fill="#676766" d="M64.9,18.143c-1.303,0-2.303-0.389-2.999-1.166c-0.697-0.776-1.051-1.917-1.064-3.42V12.29
		c0-1.561,0.34-2.785,1.021-3.672c0.68-0.887,1.63-1.33,2.849-1.33c1.225,0,2.141,0.391,2.748,1.171
		c0.606,0.78,0.916,1.996,0.929,3.647v1.122H62.54v0.241c0,1.122,0.211,1.938,0.633,2.448c0.422,0.509,1.03,0.764,1.824,0.764
		c0.503,0,0.946-0.095,1.33-0.285s0.743-0.492,1.079-0.904l0.89,1.083C67.554,17.62,66.422,18.143,64.9,18.143z M64.707,8.759
		c-0.71,0-1.235,0.243-1.577,0.73s-0.535,1.243-0.581,2.269h4.122v-0.232c-0.045-0.993-0.224-1.702-0.537-2.128
		S65.345,8.759,64.707,8.759z"/>
	<path fill="#676766" d="M74.758,9.088C74.52,9.043,74.261,9.02,73.984,9.02c-0.877,0-1.49,0.48-1.838,1.441v7.488h-1.712V7.481
		h1.664l0.029,1.064c0.458-0.839,1.106-1.258,1.944-1.258c0.271,0,0.497,0.045,0.677,0.136L74.758,9.088z"/>
	<path fill="#676766" d="M81.462,17.949c-0.103-0.226-0.177-0.606-0.223-1.142c-0.606,0.89-1.38,1.335-2.322,1.335
		c-0.948,0-1.688-0.266-2.22-0.798c-0.532-0.532-0.798-1.282-0.798-2.249c0-1.064,0.361-1.909,1.083-2.535
		c0.722-0.625,1.712-0.944,2.97-0.958h1.258V10.49c0-0.625-0.139-1.07-0.416-1.335s-0.7-0.396-1.267-0.396
		c-0.516,0-0.936,0.153-1.258,0.459c-0.323,0.307-0.484,0.695-0.484,1.166h-1.712c0-0.535,0.158-1.046,0.474-1.533
		s0.742-0.869,1.277-1.146c0.536-0.277,1.132-0.416,1.79-0.416c1.07,0,1.885,0.267,2.443,0.798c0.558,0.532,0.843,1.308,0.856,2.327
		v5.282c0.006,0.806,0.116,1.506,0.329,2.099v0.155H81.462z M79.179,16.585c0.419,0,0.819-0.116,1.2-0.348
		c0.38-0.232,0.658-0.522,0.832-0.871V12.87h-0.967c-0.813,0.013-1.455,0.195-1.925,0.547s-0.706,0.843-0.706,1.476
		c0,0.593,0.119,1.023,0.358,1.291C78.208,16.451,78.612,16.585,79.179,16.585z"/>
	<path fill="#676766" d="M87.412,17.949H85.7V3.09h1.712V17.949z"/>
	<path fill="#676766" d="M101.45,14.264h-4.76l-1.093,3.686h-1.819l4.537-14.086h1.519l4.547,14.086h-1.819L101.45,14.264z
		 M97.154,12.744h3.84L99.07,6.34L97.154,12.744z"/>
	<path fill="#676766" d="M110.379,9.088c-0.239-0.045-0.497-0.068-0.774-0.068c-0.877,0-1.49,0.48-1.838,1.441v7.488h-1.712V7.481
		h1.664l0.029,1.064c0.458-0.839,1.106-1.258,1.944-1.258c0.271,0,0.497,0.045,0.677,0.136L110.379,9.088z"/>
	<path fill="#676766" d="M114.81,4.947v2.534h1.577v1.384h-1.577v6.499c0,0.414,0.068,0.727,0.203,0.94
		c0.135,0.213,0.368,0.319,0.696,0.319c0.226,0,0.455-0.039,0.687-0.116l-0.019,1.442c-0.387,0.128-0.784,0.192-1.19,0.192
		c-0.677,0-1.193-0.242-1.548-0.726c-0.355-0.483-0.532-1.167-0.532-2.051V8.865h-1.596V7.481h1.596V4.947H114.81z"/>
	<path fill="#676766" d="M123.507,15.27c0-0.368-0.139-0.684-0.416-0.948s-0.812-0.574-1.606-0.929
		c-0.922-0.381-1.572-0.706-1.949-0.977c-0.377-0.271-0.66-0.579-0.847-0.925c-0.187-0.345-0.281-0.756-0.281-1.233
		c0-0.851,0.312-1.559,0.934-2.123c0.623-0.564,1.417-0.847,2.385-0.847c1.019,0,1.838,0.297,2.458,0.89
		c0.619,0.594,0.929,1.354,0.929,2.283h-1.703c0-0.471-0.158-0.872-0.474-1.204s-0.719-0.498-1.209-0.498
		c-0.503,0-0.898,0.13-1.185,0.391s-0.43,0.609-0.43,1.046c0,0.348,0.104,0.627,0.314,0.84c0.21,0.212,0.714,0.491,1.514,0.839
		c1.271,0.497,2.135,0.983,2.593,1.458s0.687,1.077,0.687,1.807c0,0.911-0.313,1.64-0.938,2.186s-1.464,0.818-2.515,0.818
		c-1.09,0-1.974-0.312-2.651-0.938c-0.677-0.625-1.016-1.419-1.016-2.38h1.722c0.02,0.581,0.197,1.035,0.532,1.364
		s0.806,0.493,1.413,0.493c0.567,0,1-0.127,1.296-0.382C123.358,16.045,123.507,15.701,123.507,15.27z"/>
</g>
</svg>
